<svg id="svg" version="1.1" xmlns="http://www.w3.org/2000/svg" xmlns:xlink="http://www.w3.org/1999/xlink" width="400" height="400" viewBox="0, 0, 400,400"><g id="svgg"><path id="path0" d="M43.200 94.400 C 43.200 94.620,42.300 94.800,41.200 94.800 C 40.100 94.800,39.200 94.980,39.200 95.200 C 39.200 95.420,38.906 95.600,38.547 95.600 C 38.188 95.600,37.603 95.916,37.247 96.303 C 36.891 96.689,36.108 97.258,35.507 97.567 C 34.905 97.875,34.318 98.428,34.202 98.794 C 34.086 99.160,33.678 99.815,33.295 100.250 C 32.126 101.580,31.600 102.734,31.600 103.971 C 31.600 104.621,31.420 105.264,31.200 105.400 C 30.581 105.783,30.659 142.499,31.280 143.120 C 32.115 143.955,367.836 143.803,368.157 142.967 C 368.736 141.458,368.418 102.959,367.816 101.753 C 367.091 100.298,362.180 95.600,361.385 95.600 C 361.063 95.600,360.800 95.420,360.800 95.200 C 360.800 94.980,360.001 94.800,359.024 94.800 C 358.047 94.800,357.136 94.620,357.000 94.400 C 356.620 93.785,331.098 93.862,330.480 94.480 C 330.136 94.824,329.992 97.621,329.971 104.380 C 329.934 116.306,329.388 117.500,323.946 117.571 C 318.502 117.641,317.604 115.689,317.602 103.780 C 317.600 97.455,317.464 94.824,317.120 94.480 C 316.424 93.784,248.376 93.784,247.680 94.480 C 247.332 94.828,247.200 97.743,247.200 105.085 C 247.200 112.442,247.063 115.455,246.700 116.105 C 245.681 117.929,244.656 118.800,243.530 118.800 C 242.909 118.800,242.400 118.980,242.400 119.200 C 242.400 119.420,241.770 119.600,241.000 119.600 C 240.230 119.600,239.600 119.420,239.600 119.200 C 239.600 118.980,239.338 118.800,239.019 118.800 C 237.305 118.800,235.600 116.977,235.600 115.144 C 235.600 114.761,235.420 114.336,235.200 114.200 C 234.952 114.046,234.800 110.356,234.800 104.456 C 234.800 97.604,234.666 94.826,234.320 94.480 C 233.954 94.114,225.784 94.000,199.990 94.000 L 166.139 94.000 165.270 94.926 C 164.425 95.825,164.400 96.135,164.400 105.846 C 164.400 117.805,164.107 118.800,160.581 118.800 C 160.042 118.800,159.600 118.980,159.600 119.200 C 159.600 119.420,159.150 119.600,158.600 119.600 C 158.050 119.600,157.600 119.420,157.600 119.200 C 157.600 118.980,157.095 118.800,156.478 118.800 C 155.735 118.800,154.926 118.355,154.078 117.481 L 152.800 116.162 152.800 105.561 C 152.800 97.849,152.669 94.829,152.320 94.480 C 151.624 93.784,83.576 93.784,82.880 94.480 C 82.533 94.827,82.400 97.645,82.400 104.642 C 82.400 116.154,81.923 117.960,78.700 118.661 C 78.095 118.792,77.600 119.058,77.600 119.250 C 77.600 119.442,76.970 119.600,76.200 119.600 C 75.430 119.600,74.800 119.420,74.800 119.200 C 74.800 118.980,74.291 118.800,73.670 118.800 C 72.544 118.800,71.519 117.929,70.500 116.105 C 70.137 115.455,70.000 112.442,70.000 105.085 C 70.000 97.743,69.868 94.828,69.520 94.480 C 68.900 93.860,43.200 93.782,43.200 94.400 M31.280 156.080 C 30.653 156.707,30.574 320.613,31.200 321.000 C 31.420 321.136,31.600 321.746,31.600 322.356 C 31.600 325.962,37.409 332.000,40.879 332.000 C 41.275 332.000,41.600 332.180,41.600 332.400 C 41.600 332.666,94.667 332.800,200.000 332.800 C 305.333 332.800,358.400 332.666,358.400 332.400 C 358.400 332.180,358.839 332.000,359.376 332.000 C 359.913 332.000,360.464 331.820,360.600 331.600 C 360.736 331.380,361.197 331.200,361.624 331.200 C 362.051 331.200,362.400 331.020,362.400 330.800 C 362.400 330.580,362.633 330.400,362.919 330.400 C 364.462 330.400,368.400 324.621,368.400 322.356 C 368.400 321.746,368.580 321.136,368.800 321.000 C 369.426 320.613,369.347 156.707,368.720 156.080 C 368.020 155.380,31.980 155.380,31.280 156.080 M213.506 244.100 L 213.400 257.000 200.400 257.000 L 187.400 257.000 187.294 244.604 C 187.236 237.786,187.275 231.981,187.382 231.704 C 187.532 231.313,190.494 231.200,200.593 231.200 L 213.611 231.200 213.506 244.100 " stroke="none" fill="#fcfcfc" fill-rule="evenodd"></path><path id="path1" d="M322.400 54.800 C 322.400 55.020,321.944 55.200,321.387 55.200 C 320.153 55.200,317.600 57.618,317.600 58.787 C 317.600 59.234,317.420 59.600,317.200 59.600 C 316.943 59.600,316.800 63.533,316.800 70.600 L 316.800 81.600 282.400 81.600 L 248.000 81.600 248.000 70.600 C 248.000 63.533,247.857 59.600,247.600 59.600 C 247.380 59.600,247.200 59.407,247.200 59.171 C 247.200 58.534,246.147 57.600,245.429 57.600 C 245.083 57.600,244.800 57.420,244.800 57.200 C 244.800 56.980,244.260 56.800,243.600 56.800 C 242.940 56.800,242.400 56.620,242.400 56.400 C 242.400 56.180,241.950 56.000,241.400 56.000 C 240.850 56.000,240.400 56.180,240.400 56.400 C 240.400 56.620,239.860 56.800,239.200 56.800 C 238.540 56.800,238.000 56.980,238.000 57.200 C 238.000 57.420,237.717 57.600,237.371 57.600 C 236.653 57.600,235.600 58.534,235.600 59.171 C 235.600 59.407,235.420 59.600,235.200 59.600 C 234.980 59.600,234.800 60.230,234.800 61.000 C 234.800 61.770,234.620 62.400,234.400 62.400 C 234.144 62.400,234.000 65.867,234.000 72.000 L 234.000 81.600 200.000 81.600 L 166.000 81.600 166.000 72.000 C 166.000 65.867,165.856 62.400,165.600 62.400 C 165.380 62.400,165.200 61.770,165.200 61.000 C 165.200 60.230,165.020 59.600,164.800 59.600 C 164.580 59.600,164.400 59.407,164.400 59.171 C 164.400 58.534,163.347 57.600,162.629 57.600 C 162.283 57.600,162.000 57.420,162.000 57.200 C 162.000 56.980,161.460 56.800,160.800 56.800 C 160.140 56.800,159.600 56.620,159.600 56.400 C 159.600 56.180,159.150 56.000,158.600 56.000 C 158.050 56.000,157.600 56.180,157.600 56.400 C 157.600 56.620,157.060 56.800,156.400 56.800 C 155.740 56.800,155.200 56.980,155.200 57.200 C 155.200 57.420,154.917 57.600,154.571 57.600 C 153.853 57.600,152.800 58.534,152.800 59.171 C 152.800 59.407,152.620 59.600,152.400 59.600 C 152.143 59.600,152.000 63.533,152.000 70.600 L 152.000 81.600 117.600 81.600 L 83.200 81.600 83.200 71.400 C 83.200 64.867,83.056 61.200,82.800 61.200 C 82.580 61.200,82.400 60.819,82.400 60.354 C 82.400 59.038,79.706 56.800,78.122 56.800 C 77.395 56.800,76.800 56.620,76.800 56.400 C 76.800 55.880,75.322 55.880,75.000 56.400 C 74.864 56.620,74.305 56.800,73.758 56.800 C 73.211 56.800,72.314 57.250,71.764 57.800 C 71.214 58.350,70.592 58.800,70.382 58.800 C 70.172 58.800,70.000 59.070,70.000 59.400 C 70.000 59.730,69.820 60.000,69.600 60.000 C 69.343 60.000,69.200 63.867,69.200 70.800 L 69.200 81.600 53.200 81.600 C 42.800 81.600,37.200 81.740,37.200 82.000 C 37.200 82.220,36.660 82.400,36.000 82.400 C 35.340 82.400,34.800 82.580,34.800 82.800 C 34.800 83.020,34.457 83.200,34.038 83.200 C 33.131 83.200,30.000 84.808,30.000 85.274 C 30.000 85.453,29.734 85.600,29.409 85.600 C 28.790 85.600,24.800 89.198,24.800 89.756 C 24.800 89.934,24.260 90.583,23.600 91.200 C 22.940 91.817,22.400 92.519,22.400 92.760 C 22.400 93.002,22.253 93.200,22.074 93.200 C 21.608 93.200,20.000 96.331,20.000 97.238 C 20.000 97.657,19.820 98.000,19.600 98.000 C 19.380 98.000,19.200 98.540,19.200 99.200 C 19.200 99.860,19.020 100.400,18.800 100.400 C 18.534 100.400,18.400 138.400,18.400 213.600 C 18.400 288.800,18.534 326.800,18.800 326.800 C 19.020 326.800,19.200 327.340,19.200 328.000 C 19.200 328.660,19.380 329.200,19.600 329.200 C 19.820 329.200,20.000 329.740,20.000 330.400 C 20.000 331.060,20.180 331.600,20.400 331.600 C 20.620 331.600,20.800 331.920,20.800 332.312 C 20.800 332.703,21.160 333.283,21.600 333.600 C 22.040 333.917,22.400 334.425,22.400 334.728 C 22.400 335.031,22.940 335.783,23.600 336.400 C 24.260 337.017,24.800 337.691,24.800 337.898 C 24.800 338.434,28.635 341.600,29.283 341.600 C 29.580 341.600,30.083 341.960,30.400 342.400 C 30.717 342.840,31.297 343.200,31.688 343.200 C 32.080 343.200,32.400 343.380,32.400 343.600 C 32.400 343.820,32.940 344.000,33.600 344.000 C 34.260 344.000,34.800 344.180,34.800 344.400 C 34.800 344.620,35.340 344.800,36.000 344.800 C 36.660 344.800,37.200 344.980,37.200 345.200 C 37.200 345.466,91.733 345.600,200.000 345.600 C 308.267 345.600,362.800 345.466,362.800 345.200 C 362.800 344.980,363.340 344.800,364.000 344.800 C 364.660 344.800,365.200 344.620,365.200 344.400 C 365.200 344.180,365.740 344.000,366.400 344.000 C 367.060 344.000,367.600 343.820,367.600 343.600 C 367.600 343.380,367.920 343.200,368.312 343.200 C 368.703 343.200,369.283 342.840,369.600 342.400 C 369.917 341.960,370.420 341.600,370.717 341.600 C 371.365 341.600,375.200 338.434,375.200 337.898 C 375.200 337.691,375.740 337.017,376.400 336.400 C 377.060 335.783,377.600 335.031,377.600 334.728 C 377.600 334.425,377.960 333.917,378.400 333.600 C 378.840 333.283,379.200 332.703,379.200 332.312 C 379.200 331.920,379.380 331.600,379.600 331.600 C 379.820 331.600,380.000 331.060,380.000 330.400 C 380.000 329.740,380.180 329.200,380.400 329.200 C 380.620 329.200,380.800 328.660,380.800 328.000 C 380.800 327.340,380.980 326.800,381.200 326.800 C 381.466 326.800,381.600 288.800,381.600 213.600 C 381.600 138.400,381.466 100.400,381.200 100.400 C 380.980 100.400,380.800 99.860,380.800 99.200 C 380.800 98.540,380.620 98.000,380.400 98.000 C 380.180 98.000,380.000 97.657,380.000 97.238 C 380.000 96.331,378.392 93.200,377.926 93.200 C 377.747 93.200,377.600 93.002,377.600 92.760 C 377.600 92.519,377.060 91.817,376.400 91.200 C 375.740 90.583,375.200 89.934,375.200 89.756 C 375.200 89.198,371.210 85.600,370.591 85.600 C 370.266 85.600,370.000 85.453,370.000 85.274 C 370.000 84.808,366.869 83.200,365.962 83.200 C 365.543 83.200,365.200 83.020,365.200 82.800 C 365.200 82.580,364.660 82.400,364.000 82.400 C 363.340 82.400,362.800 82.220,362.800 82.000 C 362.800 81.740,357.200 81.600,346.800 81.600 L 330.800 81.600 330.800 70.147 C 330.800 59.576,330.744 58.644,330.072 58.047 C 329.672 57.691,329.228 57.085,329.085 56.700 C 328.942 56.315,328.549 56.000,328.213 56.000 C 327.876 56.000,327.600 55.820,327.600 55.600 C 327.600 55.380,327.060 55.200,326.400 55.200 C 325.740 55.200,325.200 55.020,325.200 54.800 C 325.200 54.580,324.570 54.400,323.800 54.400 C 323.030 54.400,322.400 54.580,322.400 54.800 M69.669 94.262 C 70.341 94.871,70.400 95.755,70.400 105.262 C 70.400 111.887,70.544 115.600,70.800 115.600 C 71.020 115.600,71.200 115.878,71.200 116.218 C 71.200 117.099,73.017 118.800,73.958 118.800 C 74.395 118.800,74.864 118.980,75.000 119.200 C 75.136 119.420,75.687 119.600,76.224 119.600 C 76.761 119.600,77.200 119.420,77.200 119.200 C 77.200 118.980,77.560 118.800,78.000 118.800 C 78.440 118.800,78.800 118.620,78.800 118.400 C 78.800 118.180,79.160 118.000,79.600 118.000 C 80.133 118.000,80.400 117.733,80.400 117.200 C 80.400 116.760,80.580 116.400,80.800 116.400 C 81.020 116.400,81.200 116.040,81.200 115.600 C 81.200 115.160,81.380 114.800,81.600 114.800 C 81.856 114.800,82.000 111.244,82.000 104.931 C 82.000 96.310,82.084 94.971,82.662 94.331 C 83.639 93.252,151.278 93.185,152.469 94.262 C 153.142 94.871,153.200 95.761,153.200 105.475 L 153.200 116.027 154.587 117.413 C 155.414 118.241,156.368 118.800,156.953 118.800 C 157.492 118.800,158.015 119.025,158.114 119.300 C 158.259 119.700,158.465 119.700,159.142 119.300 C 159.608 119.025,160.352 118.800,160.795 118.800 C 161.238 118.800,161.600 118.620,161.600 118.400 C 161.600 118.180,161.960 118.000,162.400 118.000 C 162.933 118.000,163.200 117.733,163.200 117.200 C 163.200 116.760,163.380 116.400,163.600 116.400 C 163.856 116.400,164.000 112.692,164.000 106.075 L 164.000 95.750 165.122 94.675 L 166.244 93.600 200.150 93.600 C 229.003 93.600,234.142 93.685,234.629 94.171 C 235.092 94.635,235.200 96.560,235.200 104.371 C 235.200 110.524,235.344 114.000,235.600 114.000 C 235.820 114.000,236.000 114.540,236.000 115.200 C 236.000 115.860,236.180 116.400,236.400 116.400 C 236.620 116.400,236.800 116.760,236.800 117.200 C 236.800 117.733,237.067 118.000,237.600 118.000 C 238.040 118.000,238.400 118.180,238.400 118.400 C 238.400 118.620,238.760 118.800,239.200 118.800 C 239.640 118.800,240.000 118.980,240.000 119.200 C 240.000 119.721,241.878 119.721,242.200 119.200 C 242.336 118.980,242.805 118.800,243.242 118.800 C 244.183 118.800,246.000 117.099,246.000 116.218 C 246.000 115.878,246.180 115.600,246.400 115.600 C 246.656 115.600,246.800 111.910,246.800 105.331 C 246.800 96.338,246.882 94.972,247.462 94.331 C 248.368 93.331,316.432 93.175,317.429 94.171 C 317.891 94.634,318.000 96.507,318.000 103.971 C 318.000 109.857,318.145 113.200,318.400 113.200 C 318.620 113.200,318.800 113.560,318.800 114.000 C 318.800 114.440,318.980 114.800,319.200 114.800 C 319.420 114.800,319.600 115.160,319.600 115.600 C 319.600 116.133,319.867 116.400,320.400 116.400 C 320.840 116.400,321.200 116.580,321.200 116.800 C 321.200 117.436,325.742 117.267,327.119 116.580 C 329.408 115.438,329.600 114.488,329.600 104.270 C 329.600 96.264,329.686 94.968,330.262 94.331 C 331.026 93.488,356.488 93.172,357.000 94.000 C 357.136 94.220,357.929 94.400,358.762 94.400 C 361.259 94.400,366.366 98.411,368.303 101.895 C 369.196 103.501,369.004 142.757,368.100 143.443 C 366.905 144.350,32.134 144.245,31.131 143.338 C 30.285 142.572,29.965 105.916,30.800 105.400 C 31.020 105.264,31.200 104.621,31.200 103.971 C 31.200 102.675,31.816 101.366,32.900 100.357 C 33.285 99.999,33.600 99.494,33.600 99.235 C 33.600 98.624,35.424 96.800,36.035 96.800 C 36.294 96.800,36.799 96.485,37.157 96.100 C 38.240 94.936,39.506 94.400,41.171 94.400 C 42.041 94.400,42.864 94.220,43.000 94.000 C 43.475 93.232,68.805 93.481,69.669 94.262 M369.120 156.080 C 369.747 156.707,369.827 321.200,369.200 321.200 C 368.980 321.200,368.800 321.920,368.800 322.800 C 368.800 323.680,368.654 324.400,368.475 324.400 C 368.296 324.400,367.904 325.024,367.605 325.787 C 366.626 328.283,361.810 332.000,359.556 332.000 C 359.166 332.000,358.736 332.180,358.600 332.400 C 358.257 332.955,41.743 332.955,41.400 332.400 C 41.264 332.180,40.839 332.000,40.455 332.000 C 37.007 332.000,31.200 325.948,31.200 322.356 C 31.200 321.746,31.020 321.136,30.800 321.000 C 30.174 320.613,30.253 156.707,30.880 156.080 C 31.580 155.380,368.420 155.380,369.120 156.080 M187.600 244.000 L 187.600 256.800 200.400 256.800 L 213.200 256.800 213.200 244.000 L 213.200 231.200 200.400 231.200 L 187.600 231.200 187.600 244.000 " stroke="none" fill="#040404" fill-rule="evenodd"></path><path id="path2" d="" stroke="none" fill="#bc10080" fill-rule="evenodd"></path><path id="path3" d="" stroke="none" fill="#bc10080" fill-rule="evenodd"></path><path id="path4" d="" stroke="none" fill="#bc10080" fill-rule="evenodd"></path></g></svg>